name C:\Users\u0101727\Documents\MyRepositories\upper-imu-dc\Results\main_mocap_tracking\Case_10\FLX01_angularVelocities_bodyFrame.mot
datacolumns 4
datarows 58
range 0.51000000 1.08000000
endheader 
time	radius_imu_x	radius_imu_y	radius_imu_z	
          0.51000000	         -0.18050444	          1.59342825	          0.09759193	
          0.52000000	         -0.25255248	          1.61058976	          0.07461922	
          0.53000000	         -0.30000893	          1.58272754	          0.07211273	
          0.54000000	         -0.32679974	          1.50193135	          0.08553527	
          0.55000000	         -0.33769295	          1.46724450	          0.10351532	
          0.56000000	         -0.33689016	          1.43738601	          0.12353631	
          0.57000000	         -0.33903315	          1.25167051	          0.15757930	
          0.58000000	         -0.34797085	          0.97098180	          0.19749825	
          0.59000000	         -0.36143744	          0.67755765	          0.23660427	
          0.60000000	         -0.37646406	          0.38464841	          0.27288643	
          0.61000000	         -0.39091782	          0.08670590	          0.30604024	
          0.62000000	         -0.40402526	         -0.22704249	          0.33669316	
          0.63000000	         -0.41625442	         -0.55865288	          0.36551369	
          0.64000000	         -0.42905508	         -0.89531484	          0.39259279	
          0.65000000	         -0.44441841	         -1.21014488	          0.41711723	
          0.66000000	         -0.46428184	         -1.46952204	          0.43737139	
          0.67000000	         -0.48993338	         -1.64371803	          0.45103344	
          0.68000000	         -0.52164550	         -1.71626895	          0.45566132	
          0.69000000	         -0.55868150	         -1.68833118	          0.44921577	
          0.70000000	         -0.59962598	         -1.57693259	          0.43045722	
          0.71000000	         -0.64284287	         -1.40885870	          0.39909883	
          0.72000000	         -0.68685704	         -1.21327705	          0.35569496	
          0.73000000	         -0.73055881	         -1.01575725	          0.30134805	
          0.74000000	         -0.77324412	         -0.83499779	          0.23737221	
          0.75000000	         -0.81455637	         -0.68226549	          0.16503481	
          0.76000000	         -0.85439322	         -0.56271426	          0.08542602	
          0.77000000	         -0.89280608	         -0.47751910	         -0.00057313	
          0.78000000	         -0.92988283	         -0.42599984	         -0.09229619	
          0.79000000	         -0.96560827	         -0.40729468	         -0.18932599	
          0.80000000	         -0.99973359	         -0.42137432	         -0.29155870	
          0.81000000	         -1.03171733	         -0.46928240	         -0.39924038	
          0.82000000	         -1.06079802	         -0.55259292	         -0.51290330	
          0.83000000	         -1.08621209	         -0.67217310	         -0.63318377	
          0.84000000	         -1.10749327	         -0.82654859	         -0.76058241	
          0.85000000	         -1.12471426	         -1.01064659	         -0.89524888	
          0.86000000	         -1.13851782	         -1.21601053	         -1.03682724	
          0.87000000	         -1.14987383	         -1.43306979	         -1.18435670	
          0.88000000	         -1.15965932	         -1.65483273	         -1.33622674	
          0.89000000	         -1.16827786	         -1.88036873	         -1.49020689	
          0.90000000	         -1.17552672	         -2.11641290	         -1.64356475	
          0.91000000	         -1.18079484	         -2.37631456	         -1.79324941	
          0.92000000	         -1.18353085	         -2.67664923	         -1.93609293	
          0.93000000	         -1.18381021	         -3.03245116	         -2.06902492	
          0.94000000	         -1.18280993	         -3.45206151	         -2.18933260	
          0.95000000	         -1.18304972	         -3.93236130	         -2.29495757	
          0.96000000	         -1.18832337	         -4.45508634	         -2.38477033	
          0.97000000	         -1.20326786	         -4.98516537	         -2.45877763	
          0.98000000	         -1.23253155	         -5.47235425	         -2.51825668	
          0.99000000	         -1.27969877	         -5.85749966	         -2.56580218	
          1.00000000	         -1.34550763	         -6.08288326	         -2.60523427	
          1.01000000	         -1.42921895	         -6.10872996	         -2.64152679	
          1.02000000	         -1.52849412	         -5.92311869	         -2.67986451	
          1.03000000	         -1.63688455	         -5.54185299	         -2.72473875	
          1.04000000	         -1.74584575	         -5.00602344	         -2.77893477	
          1.05000000	         -1.84702553	         -4.37508068	         -2.84286455	
          1.06000000	         -1.93374982	         -3.71810055	         -2.91457607	
          1.07000000	         -2.00073755	         -3.10298637	         -2.98937627	
          1.08000000	         -2.04072528	         -2.58368483	         -3.06074146	
